# File created by Blade
# Date/Time:  Tue Jan 27 18:50:13 2015
#---------------------------------------------------------
:version 1.10
:name HOM
:units
  mass 1.0
  length 1.000000
  angle deg
:documentation
     Acclaim Skeleton File
:root
   axis xyz
   order TX TY TZ RX RY RZ
   position 0.000000 0.000000 0.000000
   orientation 0 0 0
:bonedata
   begin
      id 1
      name Spine_dum
      direction 0.000000 1.000000 0.000000
      length 5.195262
      axis 0.0 0.0 0.0 xyz
   end
   begin
      id 2
      name LeftUpLeg_dum
      direction 1.000000 0.000000 0.000000
      length 3.351363
      axis 0.0 0.0 0.0 xyz
   end
   begin
      id 3
      name RightUpLeg_dum
      direction -1.000000 0.000000 0.000000
      length 3.351363
      axis 0.0 0.0 0.0 xyz
   end
   begin
      id 4
      name Spine
      direction 0.000000 1.000000 0.000000
      length 0.000000
      axis 0.0 0.0 0.0 xyz
      dof rx ry rz
   end
   begin
      id 5
      name Spine_dum1
      direction 0.000000 1.000000 0.000000
      length 15.653875
      axis 0.0 0.0 0.0 xyz
   end
   begin
      id 6
      name Spine_dum2
      direction 0.000000 1.000000 0.000000
      length 10.329768
      axis 0.0 0.0 0.0 xyz
   end
   begin
      id 7
      name Spine_dum3
      direction 0.000000 1.000000 0.000000
      length 10.329768
      axis 0.0 0.0 0.0 xyz
   end
   begin
      id 8
      name Head
      direction 0.000000 1.000000 0.000000
      length 4.527550
      axis 0.0 0.0 0.0 xyz
      dof rx ry rz
   end
   begin
      id 9
      name LeftShoulder
      direction 1.000000 0.000000 0.000000
      length 6.996006
      axis 0.0 0.0 -90.0 xyz
      dof rx ry rz
   end
   begin
      id 10
      name LeftArm
      direction 1.000000 0.000000 0.000000
      length 10.209302
      axis 0.0 0.0 -90.0 xyz
      dof rx ry rz
   end
   begin
      id 11
      name LeftForeArm
      direction 1.000000 0.000000 0.000000
      length 8.563163
      axis 0.0 0.0 -90.0 xyz
      dof ry rz rx
   end
   begin
      id 12
      name LeftHand
      direction 0.000000 0.000000 0.000000
      length 0.000000
      axis 0.0 0.0 -90.0 xyz
      dof rx ry rz
   end
   begin
      id 13
      name LeftHand_dum1
      direction 0.000000 0.000000 0.000000
      length 0.000000
      axis 0.0 0.0 -90.0 xyz
   end
   begin
      id 14
      name LeftHand_dum2
      direction 1.000000 0.000000 0.000000
      length 3.937000
      axis 0.0 0.0 -90.0 xyz
   end
   begin
      id 15
      name LeftHandThumb1
      direction 0.000000 0.000000 1.000000
      length 3.937000
      axis 0.0 0.0 -90.0 xyz
      dof rx rz ry
   end
   begin
      id 16
      name RightShoulder
      direction -1.000000 0.000000 0.000000
      length 6.996006
      axis 0.0 0.0 90.0 xyz
      dof rx ry rz
   end
   begin
      id 17
      name RightArm
      direction -1.000000 0.000000 0.000000
      length 10.209302
      axis 0.0 0.0 90.0 xyz
      dof rx ry rz
   end
   begin
      id 18
      name RightForeArm
      direction -1.000000 0.000000 0.000000
      length 8.563163
      axis 0.0 0.0 90.0 xyz
      dof ry rz rx
   end
   begin
      id 19
      name RightHand
      direction 0.000000 0.000000 0.000000
      length 0.000000
      axis 0.0 0.0 90.0 xyz
      dof rx ry rz
   end
   begin
      id 20
      name RightHand_dum1
      direction 0.000000 0.000000 0.000000
      length 0.000000
      axis 0.0 0.0 90.0 xyz
   end
   begin
      id 21
      name RightHand_dum2
      direction -1.000000 0.000000 0.000000
      length 3.937000
      axis 0.0 0.0 90.0 xyz
   end
   begin
      id 22
      name RightHandThumb1
      direction 0.000000 0.000000 1.000000
      length 3.937000
      axis 0.0 0.0 90.0 xyz
      dof rx rz ry
   end
   begin
      id 23
      name LeftUpLeg
      direction 0.000000 -1.000000 0.000000
      length 16.346831
      axis 0.0 0.0 0.0 xyz
      dof rx ry rz
   end
   begin
      id 24
      name LeftLeg
      direction 0.000000 -1.000000 0.000000
      length 13.959795
      axis 0.0 0.0 0.0 xyz
      dof rx ry rz
   end
   begin
      id 25
      name LeftFoot
      direction 0.000000 -0.258819 0.965926
      length 5.165550
      axis 15.0 0.0 0.0 xyz
      dof rx ry rz
   end
   begin
      id 26
      name LeftToeBase
      direction 0.000000 0.000000 1.000000
      length 2.952750
      axis 0.0 0.0 0.0 xyz
      dof rx ry rz
   end
   begin
      id 27
      name RightUpLeg
      direction 0.000000 -1.000000 0.000000
      length 16.346831
      axis 0.0 0.0 0.0 xyz
      dof rx ry rz
   end
   begin
      id 28
      name RightLeg
      direction 0.000000 -1.000000 0.000000
      length 13.959795
      axis 0.0 0.0 0.0 xyz
      dof rx ry rz
   end
   begin
      id 29
      name RightFoot
      direction 0.000000 -0.258819 0.965926
      length 5.165550
      axis 15.0 0.0 0.0 xyz
      dof rx ry rz
   end
   begin
      id 30
      name RightToeBase
      direction 0.000000 0.000000 1.000000
      length 2.952750
      axis 0.0 0.0 0.0 xyz
      dof rx ry rz
   end
:hierarchy
   begin
      root Spine_dum LeftUpLeg_dum RightUpLeg_dum
      Spine_dum Spine
      LeftUpLeg_dum LeftUpLeg
      RightUpLeg_dum RightUpLeg
      Spine Spine_dum1 Spine_dum2 Spine_dum3
      Spine_dum1 Head
      Spine_dum2 LeftShoulder
      Spine_dum3 RightShoulder
      LeftShoulder LeftArm
      LeftArm LeftForeArm
      LeftForeArm LeftHand
      LeftHand LeftHand_dum1 LeftHand_dum2
      LeftHand_dum1 LeftHandThumb1
      RightShoulder RightArm
      RightArm RightForeArm
      RightForeArm RightHand
      RightHand RightHand_dum1 RightHand_dum2
      RightHand_dum1 RightHandThumb1
      LeftUpLeg LeftLeg
      LeftLeg LeftFoot
      LeftFoot LeftToeBase
      RightUpLeg RightLeg
      RightLeg RightFoot
      RightFoot RightToeBase
   end

# File created by Blade
# Date/Time:  Tue Jan 27 18:50:05 2015
# Frame Rate: 120.000 fps
#------------------------------------------------------
:FULLY-SPECIFIED
:DEGREES
223
root -2.282115 31.889210 -7.828716 -5.045868 14.490514 -7.548171
Spine 6.006544 -3.851012 3.388256
Head 11.200095 -1.826273 4.549748
LeftShoulder -15.560218 16.193210 17.175647
LeftArm 10.842207 -36.667375 -59.659505
LeftForeArm -21.637115 -0.000000 81.160812
LeftHand -11.947782 -0.000000 14.098717
LeftHandThumb1 -26.253704 0.000000 33.147579
RightShoulder -10.768488 1.223068 -12.686389
RightArm 18.324437 -25.671900 70.223519
RightForeArm -27.345649 -0.000000 23.995759
RightHand -15.202669 -0.000000 11.142734
RightHandThumb1 -24.326973 -0.000000 -32.862282
LeftUpLeg -5.326036 2.552283 -1.967638
LeftLeg 20.958961 -0.000000 -0.000000
LeftFoot -25.596418 19.150221 -17.347492
LeftToeBase 11.823620 -0.000000 -0.000000
RightUpLeg -80.829877 -13.110369 6.332409
RightLeg 89.306038 -0.000000 -0.000000
RightFoot 0.056568 -14.471677 14.042604
RightToeBase 3.551960 -0.000000 -0.000000
224
root -2.264804 31.880755 -7.819236 -5.177145 14.490794 -7.612855
Spine 6.054181 -3.852906 3.400188
Head 11.366109 -1.830824 4.659163
LeftShoulder -15.618522 16.247838 17.135035
LeftArm 10.854069 -36.746130 -59.667567
LeftForeArm -21.670510 0.000000 81.203489
LeftHand -11.941087 -0.000000 14.077839
LeftHandThumb1 -26.253704 0.000000 33.147579
RightShoulder -10.797423 1.253985 -12.632449
RightArm 18.372029 -25.786107 70.157765
RightForeArm -27.259494 0.000000 23.926115
RightHand -15.292213 -0.000000 11.192379
RightHandThumb1 -24.326973 -0.000000 -32.862282
LeftUpLeg -5.234507 2.488335 -1.952096
LeftLeg 21.066521 -0.000000 -0.000000
LeftFoot -25.719537 19.272946 -17.323162
LeftToeBase 11.737159 -0.000000 -0.000000
RightUpLeg -80.710017 -13.145681 6.331873
RightLeg 89.215280 -0.000000 -0.000000
RightFoot 0.128133 -14.047407 14.106271
RightToeBase 3.601413 -0.000000 -0.000000
225
root -2.248866 31.872927 -7.809468 -5.297993 14.514575 -7.677836
Spine 6.064091 -3.867173 3.422726
Head 11.644072 -1.855832 4.630993
LeftShoulder -15.660660 16.274317 17.062662
LeftArm 10.855696 -36.761785 -59.581538
LeftForeArm -21.670487 0.000000 81.210390
LeftHand -11.951601 0.000000 14.193676
LeftHandThumb1 -26.253704 0.000000 33.147579
RightShoulder -10.827518 1.224108 -12.587797
RightArm 18.461344 -25.888244 70.107293
RightForeArm -27.139034 0.000000 23.837217
RightHand -15.407800 0.000000 11.025071
RightHandThumb1 -24.326973 -0.000000 -32.862282
LeftUpLeg -5.171367 2.410560 -1.923195
LeftLeg 21.201970 -0.000000 -0.000000
LeftFoot -25.864167 19.327904 -17.348093
LeftToeBase 11.756164 -0.000000 -0.000000
RightUpLeg -80.556033 -13.188766 6.301172
RightLeg 89.060115 -0.000000 -0.000000
RightFoot 0.184965 -13.703117 14.206780
RightToeBase 3.502447 -0.000000 -0.000000
226
root -2.232269 31.864429 -7.799891 -5.389127 14.555315 -7.725621
Spine 6.022102 -3.886673 3.407990
Head 11.964159 -1.886855 4.741099
LeftShoulder -15.686165 16.326503 17.054374
LeftArm 10.837372 -36.747464 -59.548695
LeftForeArm -21.655413 -0.000000 81.222460
LeftHand -11.834745 -0.000000 14.191997
LeftHandThumb1 -26.253704 0.000000 33.147579
RightShoulder -10.851286 1.199031 -12.519532
RightArm 18.485056 -25.933628 70.092375
RightForeArm -27.244462 0.000000 23.768509
RightHand -15.342292 0.000000 11.269729
RightHandThumb1 -24.326973 -0.000000 -32.862282
LeftUpLeg -5.133149 2.298736 -1.906164
LeftLeg 21.334789 -0.000000 -0.000000
LeftFoot -26.005695 19.356430 -17.386883
LeftToeBase 11.820019 -0.000000 -0.000000
RightUpLeg -80.391748 -13.265896 6.260183
RightLeg 88.838193 -0.000000 -0.000000
RightFoot 0.173299 -13.430484 14.417195
RightToeBase 3.511131 -0.000000 -0.000000
227
root -2.216451 31.857344 -7.791437 -5.469968 14.631088 -7.772730
Spine 5.961972 -3.923753 3.377734
Head 12.326930 -1.947323 4.822295
LeftShoulder -15.706995 16.368120 17.068009
LeftArm 10.887484 -36.770396 -59.597988
LeftForeArm -21.459807 -0.000000 81.222783
LeftHand -11.768906 -0.000000 14.342263
LeftHandThumb1 -26.253704 0.000000 33.147579
RightShoulder -10.873209 1.172342 -12.427468
RightArm 18.466464 -25.934688 70.087077
RightForeArm -27.322299 -0.000000 23.730005
RightHand -15.311945 -0.000000 11.367721
RightHandThumb1 -24.326973 -0.000000 -32.862282
LeftUpLeg -5.112553 2.224675 -1.884912
LeftLeg 21.479660 -0.000000 -0.000000
LeftFoot -26.129527 19.297063 -17.456145
LeftToeBase 11.828823 -0.000000 -0.000000
RightUpLeg -80.197770 -13.376637 6.217848
RightLeg 88.561518 -0.000000 -0.000000
RightFoot 0.145435 -13.252721 14.544201
RightToeBase 3.407359 -0.000000 -0.000000
228
root -2.196878 31.849762 -7.782025 -5.531980 14.729311 -7.786337
Spine 5.865495 -3.947304 3.327872
Head 12.708474 -2.080719 4.890114
LeftShoulder -15.666580 16.319515 17.079061
LeftArm 10.796487 -36.755231 -59.533004
LeftForeArm -21.199073 -0.000000 81.279823
LeftHand -11.762455 -0.000000 14.621831
LeftHandThumb1 -26.253704 0.000000 33.147579
RightShoulder -10.919236 1.012292 -12.330095
RightArm 18.534989 -25.910108 70.051512
RightForeArm -27.213176 -0.000000 23.714963
RightHand -15.402161 -0.000000 11.117552
RightHandThumb1 -24.326973 -0.000000 -32.862282
LeftUpLeg -5.083297 2.156342 -1.898062
LeftLeg 21.587226 -0.000000 -0.000000
LeftFoot -26.261830 19.192225 -17.577189
LeftToeBase 11.917699 -0.000000 -0.000000
RightUpLeg -79.982358 -13.528547 6.142439
RightLeg 88.229736 -0.000000 -0.000000
RightFoot 0.074877 -13.181739 14.696325
RightToeBase 3.415575 -0.000000 -0.000000
229
root -2.174952 31.841801 -7.771147 -5.611243 14.842890 -7.756092
Spine 5.792522 -3.993514 3.194280
Head 13.115054 -2.141219 5.075243
LeftShoulder -15.631416 16.274211 17.115197
LeftArm 10.796646 -36.872685 -59.619137
LeftForeArm -20.631399 -0.000000 81.367504
LeftHand -11.998238 -0.000000 14.926916
LeftHandThumb1 -26.253704 0.000000 33.147579
RightShoulder -10.959022 0.979344 -12.220412
RightArm 18.472741 -25.912255 70.068507
RightForeArm -27.202548 -0.000000 23.676713
RightHand -15.389861 -0.000000 11.084559
RightHandThumb1 -24.326973 -0.000000 -32.862282
LeftUpLeg -5.009814 2.149666 -1.949446
LeftLeg 21.668976 -0.000000 -0.000000
LeftFoot -26.366983 19.011576 -17.679082
LeftToeBase 11.967506 -0.000000 -0.000000
RightUpLeg -79.704521 -13.693574 6.004468
RightLeg 87.878201 -0.000000 -0.000000
RightFoot -0.013717 -13.145796 14.847260
RightToeBase 3.243343 -0.000000 -0.000000
230
root -2.152863 31.834097 -7.758629 -5.696645 14.982088 -7.710728
Spine 5.719351 -4.039582 3.049873
Head 13.528418 -2.298376 5.204819
LeftShoulder -15.565006 16.289374 17.166654
LeftArm 10.851908 -37.003708 -59.782348
LeftForeArm -20.040332 -0.000000 81.417178
LeftHand -12.217172 -0.000000 15.394314
LeftHandThumb1 -26.253704 0.000000 33.147579
RightShoulder -11.034823 0.855383 -12.121211
RightArm 18.475240 -25.914633 70.073431
RightForeArm -27.212190 -0.000000 23.683395
RightHand -15.257260 0.000000 11.219671
RightHandThumb1 -24.326973 -0.000000 -32.862282
LeftUpLeg -4.914224 2.171327 -2.008932
LeftLeg 21.731699 -0.000000 -0.000000
LeftFoot -26.463967 18.752356 -17.810967
LeftToeBase 12.087274 -0.000000 -0.000000
RightUpLeg -79.405725 -13.909654 5.891642
RightLeg 87.484971 -0.000000 -0.000000
RightFoot -0.069050 -13.315496 14.740330
RightToeBase 3.237534 -0.000000 -0.000000
